<?xml version="1.0" standalone="no"?>
<!DOCTYPE svg PUBLIC "-//W3C//DTD SVG 20010904//EN"
 "http://www.w3.org/TR/2001/REC-SVG-20010904/DTD/svg10.dtd">
<svg version="1.0" xmlns="http://www.w3.org/2000/svg"
 width="194.000000pt" height="186.000000pt" viewBox="0 0 194.000000 186.000000"
 preserveAspectRatio="xMidYMid meet">

<g transform="translate(0.000000,186.000000) scale(0.100000,-0.100000)"
fill="#000000" stroke="none">
<path d="M922 1086 c-23 -42 -42 -81 -42 -87 0 -14 81 -149 89 -149 4 0 15 15
24 33 9 17 28 52 41 76 l25 43 -32 57 c-64 115 -56 113 -105 27z"/>
<path d="M791 865 l-43 -75 40 -72 c22 -40 45 -73 52 -73 7 0 30 33 52 72 l40
73 -42 75 c-23 41 -45 75 -49 75 -4 0 -27 -34 -50 -75z"/>
<path d="M1067 880 c-21 -34 -39 -71 -42 -83 -6 -26 72 -174 85 -161 5 5 26
41 48 79 l40 70 -36 65 c-54 101 -54 100 -95 30z"/>
<path d="M671 615 l-41 -75 42 -75 c23 -41 45 -75 48 -75 4 0 26 34 49 75 l43
74 -42 76 c-23 41 -45 75 -50 75 -4 0 -27 -34 -49 -75z"/>
<path d="M1197 617 c-20 -39 -37 -76 -37 -80 0 -5 19 -40 42 -78 47 -80 45
-81 101 21 l35 65 -41 72 c-23 40 -46 73 -52 73 -5 0 -27 -33 -48 -73z"/>
<path d="M539 383 l-42 -78 40 -74 c22 -41 44 -76 49 -78 5 -2 28 31 51 73
l43 76 -41 74 c-22 41 -44 76 -49 79 -4 3 -27 -30 -51 -72z"/>
<path d="M1373 448 c-6 -7 -27 -42 -46 -77 -39 -71 -43 -50 28 -175 l28 -49
24 39 c13 21 33 58 45 81 l21 41 -38 69 c-45 82 -49 87 -62 71z"/>
<path d="M557 3 c255 -2 671 -2 925 0 255 1 47 2 -462 2 -509 0 -717 -1 -463
-2z"/>
</g>
</svg>
